# xmcd
# 
# Track frame offsets:
#     150
#     16104
#     32814
#     47100
#     74097
#     89559
#     103001
#     122513
#     147759
#     165481
#     178856
#     195730
#     228211
# 
# Disc length: 3291
# 
# Revision: 0
# Processed by: cddbd v1.5.2PL0 Copyright (c) Steve Scherf et al.
# Submitted via: fre:ac v1.0.31
# 
DISCID=af0cd90d
DTITLE=Ye Banished Privateers - Hostis Humanis Generis
DYEAR=2020
DGENRE=Folk
TTITLE0=No Prey, No Pay
TTITLE1=Hush Now My Child
TTITLE2=Blame the Brits
TTITLE3=Capstan Shanty
TTITLE4=Elephants' Dance
TTITLE5=Swords to Plowshares
TTITLE6=Flintlock
TTITLE7=Parting Song
TTITLE8=Rowing With One Hand
TTITLE9=A-Swinging We Must Go
TTITLE10=They are Marching Down on High Street
TTITLE11=Death of Bellows
TTITLE12=Why the Big Whales Sing
EXTD=
EXTT0=
EXTT1=
EXTT2=
EXTT3=
EXTT4=
EXTT5=
EXTT6=
EXTT7=
EXTT8=
EXTT9=
EXTT10=
EXTT11=
EXTT12=
PLAYORDER=
